<svg height="512" viewBox="0 0 60 54" width="512" xmlns="http://www.w3.org/2000/svg">
  <g id="027---Cannon" fill="none">
    <path id="Shape"
          d="m13.11 4c0 .73.33-.44-6.29 17.94-.29761904 1.0838596-1.17612635 1.9104306-2.27609062 2.1415309-1.09996426.2311003-2.23683238-.1720444-2.94546761-1.0444921-.70863523-.8724476-.87014205-2.0678179-.41844177-3.0970388l6.1-16.94c.48543688-1.37995556 1.89538362-2.20859368 3.3371763-1.9612879 1.4417927.24730578 2.4950031 1.49844083 2.4928237 2.9612879z"
          fill="#607d8b"/>
    <path id="Shape"
          d="m55.62 27.16c-3.5161243-4.508954-9.1711613-6.7988534-14.8338707-6.0066929-5.6627095.7921604-10.4722888 4.5459624-12.6161293 9.8466929l-6.59-2.8 6.7-18.57 19.72 5.91c4.9746359 1.5756358 8.1576828 6.4295734 7.62 11.62z"
          fill="#3f51b5"/>
    <path id="Shape"
          d="m48 15.54-19.72-5.91-.29.81 17 5.1c3.9288402 1.2352627 6.8385297 4.5617246 7.54 8.62 1.1669991.8554275 2.2131208 1.8645481 3.11 3 .5353271-5.1960175-2.6573893-10.0519553-7.64-11.62z"
          fill="#283593"/>
    <path id="Shape" d="m28.28 9.63-6.7 18.57-3.69-1.56c0-.1-.07.2 6.55-18.16z" fill="#37474f"/>
    <path id="Shape" d="m24.44 8.48c-6.63 18.36-6.55 18.06-6.55 18.16l-11.07-4.64 6.11-17z" fill="#3f51b5"/>
    <path id="Shape"
          d="m55.62 27.16c-4.6038862-5.9029087-12.6852856-7.8245222-19.4534079-4.6256755s-10.4135132 10.6629434-8.7751233 17.9674473c1.6383899 7.304504 8.1225378 12.4965595 15.6085312 12.4982282 13.47 0 20.69-15.53 12.62-25.84zm-12.62 21.84c-6.627417 0-12-5.372583-12-12s5.372583-12 12-12 12 5.372583 12 12c0 3.1825979-1.2642821 6.2348448-3.5147186 8.4852814-2.2504366 2.2504365-5.3026835 3.5147186-8.4852814 3.5147186z"
          fill="#a0522d"/>
    <circle id="Oval" cx="43" cy="37" fill="#825a2c" r="4"/>
    <path id="Shape"
          d="m41.5 33.3c1.5004686.6163554 2.4801316 2.0778718 2.4801316 3.7s-.979663 3.0836446-2.4801316 3.7c1.6719471.6867945 3.5967277.1670078 4.6956653-1.2680637 1.0989375-1.4350714 1.0989375-3.4288012 0-4.8638726-1.0989376-1.4350715-3.0237182-1.9548582-4.6956653-1.2680637z"
          fill="#624421"/>
    <g id="Layer_2" fill="#000">
      <path id="Shape"
            d="m54.81 19.63c1.9899989-.3671171 3.7722571-1.4614236 5-3.07.2000687-.2965304.2267428-.6772713.0699743-.9988011-.1567686-.3215298-.4731628-.5350006-.8300001-.56-.3568372-.0249994-.6999055.1422706-.8999742.4388011-1.09 1.63-3.39 2.21-4.71 2.42-1.4190944-1.5263417-3.2112466-2.6567761-5.2-3.28l-34.16-10.26c.1440569-1.98623368-1.1949255-3.77591247-3.1410603-4.19832932-1.94613479-.42241686-3.9065872.65110555-4.5989397 2.51832932l-6.1 16.94c-.61263044 1.8609451.21280452 3.8917414 1.95001556 4.7975729 1.73721103.9058315 3.87485229.4200678 5.04998444-1.1475729l19.64 8.31c-2.6701737 7.8882801.7672381 16.5495418 8.12 20.46h-5c-.5522847 0-1 .4477153-1 1s.4477153 1 1 1h13c6.4140488-.010195 12.2763315-3.6295768 15.1591477-9.3592798 2.8828163-5.729703 2.2953378-12.5941878-1.5191477-17.7507202.1798789-2.5532359-.4613425-5.0970977-1.83-7.26zm-35.66 6.45 5.91-16.37 1.92.57-5.98 16.59zm-11.07-4.68c3.73-10.33 2.49-6.88 5.47-15.15l9.59 2.88-5.83 16.17zm-4.76 1.42c-1.03797308-.3759066-1.57507615-1.5217265-1.2-2.56l6.1-16.94c.2429406-.67523196.82765894-1.16956476 1.53389727-1.29678801s1.42670223.13199128 1.89000003.68c.4632977.54800871.5990433 1.30155605.3561027 1.97678801-2.29 6.32-6.23 17.23-6.12 16.94-.37590665 1.0379731-1.52172652 1.5750761-2.56 1.2zm19.52 4.83 6.06-16.79 18.77 5.63c3.6618856 1.1491367 6.3430224 4.2926723 6.9 8.09-3.9598083-3.6778465-9.4324208-5.2538058-14.7417896-4.2452231s-9.8228761 4.4815335-12.1582104 9.3552231zm20.16 24.35c-8.2842712 0-15-6.7157288-15-15s6.7157288-15 15-15 15 6.7157288 15 15-6.7157288 15-15 15z"/>
      <path id="Shape"
            d="m52.19 27.81c-3.7174425-3.7193743-9.3095041-4.8328371-14.1681003-2.82108-4.8585963 2.0117572-8.0266754 6.7524562-8.0266754 12.01108s3.1680791 9.9993228 8.0266754 12.01108c4.8585962 2.0117571 10.4506578.8982943 14.1681003-2.82108 5.0736324-5.076269 5.0736324-13.303731 0-18.38zm-.74 16.19-4.28-4.28c.3492507-.522369.5969076-1.1058894.73-1.72h6.1c-.2241837 2.2117243-1.1132397 4.3036207-2.55 6zm-19.4-6h6.05c.1294844.6245557.3772726 1.2185685.73 1.75l-4.28 4.25c-1.4187076-1.7025041-2.290093-3.793829-2.5-6zm2.5-8 4.28 4.28c-.3492507.522369-.5969076 1.1058894-.73 1.72h-6.05c.209907-2.206171 1.0812924-4.2974959 2.5-6zm8.45 10c-1.6568542 0-3-1.3431458-3-3s1.3431458-3 3-3 3 1.3431458 3 3-1.3431458 3-3 3zm2.75-7.17c-.5314315-.3527274-1.1254443-.6005156-1.75-.73v-6.05c2.206171.209907 4.2974959 1.0812924 6 2.5zm-3.75-.73c-.6245557.1294844-1.2185685.3772726-1.75.73l-4.25-4.28c1.7025041-1.4187076 3.793829-2.290093 6-2.5zm-1.75 9.07c.5314315.3527274 1.1254443.6005156 1.75.73v6.1c-2.206171-.209907-4.2974959-1.0812924-6-2.5zm3.75.73c.6245557-.1294844 1.2185685-.3772726 1.75-.73l4.25 4.28c-1.6963793 1.4367603-3.7882757 2.3258163-6 2.55zm3.9-5.9c-.1294844-.6245557-.3772726-1.2185685-.73-1.75l4.28-4.25c1.4367603 1.6963793 2.3258163 3.7882757 2.55 6z"/>
      <path id="Shape"
            d="m26 52h-2c-.5522847 0-1 .4477153-1 1s.4477153 1 1 1h2c.5522847 0 1-.4477153 1-1s-.4477153-1-1-1z"/>
    </g>
  </g>
</svg>
