<svg width="800" height="600" xmlns="http://www.w3.org/2000/svg">
 <!-- Created with Method Draw - http://github.com/duopixel/Method-Draw/ -->
 <g>
  <title>background</title>
  <rect fill="#fff" id="canvas_background" height="602" width="802" y="-1" x="-1"/>
  <g display="none" overflow="visible" y="0" x="0" height="100%" width="100%" id="canvasGrid">
   <rect fill="url(#gridpattern)" stroke-width="0" y="0" x="0" height="100%" width="100%"/>
  </g>
 </g>
 <g>
  <title>Layer 1</title>
  <path d="m151.5,378.453125c0,-1 -0.229752,-2.026764 0,-3c0.513748,-2.176239 2.486252,-2.823761 3,-5c0.229752,-0.973236 1.458801,-1.693451 2,-3c0.38269,-0.923889 1,-1 1,-2c0,-1 -0.414215,-1.585785 1,-3c0.707108,-0.707092 1.458801,-0.693451 2,-2c0.38269,-0.923889 0,-2 1,-2c1,0 1.458801,-0.693451 2,-2c0.38269,-0.923889 1,-1 1,-2c0,-1 1.292892,-0.292908 2,-1c0.707108,-0.707092 1.458801,-1.693451 2,-3c0.38269,-0.923889 1,-1 2,-2c1,-1 1.61731,-1.076111 2,-2c0.541199,-1.306549 1.292892,-1.292908 2,-2c0.707108,-0.707092 2.076126,-0.61731 3,-1c1.306564,-0.541199 1.076126,-1.61731 2,-2c1.306564,-0.541199 2.292892,-1.292908 3,-2c0.707108,-0.707092 1.292892,-0.292908 2,-1c0.707108,-0.707092 1.292892,-0.292908 2,-1c0.707108,-0.707092 2.076126,0.38269 3,0c1.306564,-0.541199 2.076126,-0.61731 3,-1c1.306564,-0.541199 2,-1 3,-1c1,0 2,-1 3,-1c1,0 2,-1 3,-1c1,0 1.693436,-0.458801 3,-1c0.923874,-0.38269 3.292892,0.707092 4,0c0.707108,-0.707092 1,-1 2,-1c1,0 1.823746,-0.486267 4,-1c0.973251,-0.229767 1,-1 2,-1c1,0 2,0 3,0c1,0 2,-1 3,-1c2,0 3,0 4,0c2,0 3,-1 4,-1c1,0 2,-1 4,-1c1,0 3.026749,0.229767 4,0c2.176254,-0.513733 4,-1 6,-1c1,0 2,-1 4,-1c1,0 3,-1 4,-1c1,0 3,0 4,0c2,0 3,-1 5,-1c1,0 3.026764,0.229767 4,0c2.176239,-0.513733 3.053497,-0.540497 5,-1c2.176239,-0.513733 4,-1 6,-1c1,0 1.693451,-0.458801 3,-1c1.847748,-0.765381 2.693451,-0.458801 4,-1c1.847748,-0.765381 3,0 5,0c1,0 3,-1 4,-1c2,0 2,-1 3,-1c2,0 4,0 6,0c1,0 2.823761,-0.486267 5,-1c0.973236,-0.229767 1.693451,-0.458801 3,-1c1.847748,-0.765381 3,0 6,0c1,0 1.292908,-0.292908 2,-1c0.707092,-0.707092 3,0 4,0c2,0 3.152252,0.765381 5,0c1.306549,-0.541199 2.076111,-0.61731 3,-1c1.306549,-0.541199 2,-1 3,-1c2,0 3,-1 4,-1c1,0 1.693451,-0.458801 3,-1c0.923889,-0.38269 2,-1 3,-1c1,0 1.693451,-0.458801 3,-1c0.923889,-0.38269 3.186005,0.307465 5,-1c1.147278,-0.826904 3.292908,-1.292908 4,-2c2.121307,-2.121307 2.823761,-1.486267 5,-2c0.973236,-0.229767 2.152252,-0.234619 4,-1c1.306549,-0.541199 2.076111,-1.61731 3,-2c1.306549,-0.541199 1.693451,-1.458801 3,-2c0.923889,-0.38269 1.693451,-1.458801 3,-2c0.923889,-0.38269 2.292908,-0.292908 3,-1c0.707092,-0.707092 0.292908,-2.292908 1,-3c0.707092,-0.707092 2.458801,-1.693451 3,-3c0.38269,-0.923889 1.458801,-0.693451 2,-2c0.38269,-0.923889 0.292908,-2.292908 1,-3c0.707092,-0.707092 1.486267,-0.823761 2,-3c0.229767,-0.973236 0.61731,-2.076111 1,-3c0.541199,-1.306549 2,-2 2,-3c0,-1 -0.307465,-2.186005 1,-4c0.826904,-1.147278 1,-3 1,-4c0,-1 1,-4 1,-5c0,-1 0,-2 0,-4c0,-1 0,-2 0,-4c0,-2 0,-3 0,-4c0,-3 -1.486267,-3.823746 -2,-6c-0.229767,-0.973251 -0.770233,-3.026749 -1,-4c-0.513733,-2.176254 -1.234619,-3.152237 -2,-5c-0.541199,-1.306564 -2.292908,-2.292892 -3,-3c-0.707092,-0.707108 -0.386871,-3.917603 -3,-5c-0.923889,-0.38269 -4.103394,-2.906326 -5,-4c-2.285889,-2.78833 -3,-4 -5,-6c-1,-1 -1.0979,-3.824432 -3,-5c-0.850647,-0.525726 -1,-1 -2,-2c-1,-1 -2,-1 -3,-2c-1,-1 -1.585785,-0.585785 -3,-2c-0.707092,-0.707108 -2.186005,-0.692551 -4,-2c-2.294525,-1.653809 -2.796997,-2.2565 -4,-3c-2.690002,-1.662506 -3.647491,-1.972519 -8,-3c-0.973236,-0.229752 -4.769348,-1.303223 -6,-2c-3.587921,-2.031448 -6.132996,-0.569504 -10,-2c-2.097168,-0.775803 -4.823761,-1.486252 -7,-2c-3.893005,-0.919006 -7,-1 -8,-1c-4,0 -6,-1 -8,-1c-4,0 -6,0 -9,0c-1,0 -6,0 -7,0c-3,0 -8,-1 -11,-1c-4,0 -7,0 -11,0c-2,0 -7,0 -8,0c-3,0 -6,0 -8,0c-1,0 -3,0 -6,0c-2,0 -4.693436,1.458801 -6,2c-0.923874,0.38269 -3.076126,0.61731 -4,1c-1.306564,0.541199 -2.824432,0.097885 -4,2c-0.525726,0.850647 -2.076126,1.61731 -3,2c-2.613129,1.082397 -3.292892,2.292892 -4,3c-0.707108,0.707108 -1.076126,1.61731 -2,2c-1.306564,0.541199 -1.118332,1.528137 -2,2c-3.178925,1.701309 -3.2565,4.796997 -4,6c-1.662506,2.689987 -2,4 -3,5c-1,1 -2.61731,4.076126 -3,5c-1.082397,2.613129 -3.486252,3.823746 -4,6c-0.229752,0.973251 -1,2 -1,4c0,1 -1,3 -1,4c0,2 0,3 0,5c0,2 0,4 0,8c0,2 1.144287,8.934143 2,11c1.210144,2.92157 2.2565,5.796997 3,7c1.662506,2.690002 1.097885,4.824432 3,6c0.850647,0.525726 2.474274,2.149353 3,3c1.175568,1.9021 3,2 4,3c1,1 2.186005,1.692535 4,3c1.147263,0.826904 2.693436,2.458801 4,3c0.923874,0.38269 1.152237,0.234619 3,1c1.306564,0.541199 1.70546,1.346191 4,3c1.813995,1.307465 3.310013,1.337494 6,3c1.203003,0.7435 3.796997,2.2565 5,3c2.689987,1.662506 3,2 5,2c1,0 2.076126,0.61731 3,1c1.306564,0.541199 2.824432,0.0979 4,2c0.525726,0.850647 0.823761,1.486267 3,2c0.973236,0.229767 2.292908,0.292908 3,1c0.707092,0.707092 1.292908,1.292908 2,2c1.414215,1.414215 2.386871,0.917603 5,2c0.923889,0.38269 3.076111,0.61731 4,1c1.306549,0.541199 3.769348,2.303223 5,3c3.587921,2.031464 4.549164,1.95517 8,3c0.957092,0.289795 1.823761,0.486267 4,1c0.973236,0.229767 4,1 5,1c1,0 2.693451,0.458801 4,1c1.847748,0.765381 4,1 6,1c1,0 4.026764,0.770233 5,1c2.176239,0.513733 4,1 6,1c1,0 3,1 4,1c1,0 3.152252,0.234619 5,1c1.306549,0.541199 3.076111,0.61731 4,1c1.306549,0.541199 1.823761,1.486267 4,2c0.973236,0.229767 2.026764,-0.229767 3,0c2.176239,0.513733 3,2 5,2c1,0 4,1 5,1c1,0 4.012909,0.839813 5,1c3.121429,0.506531 4.152252,0.234619 6,1c1.306549,0.541199 1.823761,1.486267 4,2c0.973236,0.229767 3,0 4,0c1,0 2,1 4,1c1,0 3.053497,-0.459503 5,0c2.176239,0.513733 4.012909,0.839813 5,1c3.121429,0.506531 4,1 8,1c1,0 4.878571,0.493469 8,1c0.987091,0.160187 6,1 9,1c2,0 4,1 6,1c2,0 4,0 7,0c1,0 4,0 5,0c4,0 5,0 8,0c2,0 5,0 8,0c2,0 5,0 7,0c3,0 5,0 8,0c2,0 4,0 8,0c1,0 5,0 6,0c3,0 8,-1 9,-1c4,0 6,0 10,0c1,0 5,0 7,0c4,0 6,0 10,0c3,0 5,0 8,0c1,0 5,0 7,0c1,0 3,0 5,0c2,0 4,0 7,0c1,0 5,0 7,0c2,0 4,0 7,0c1,0 3,0 7,0c2,0 5,0 6,0c3,0 4,0 6,0c3,0 4,0 7,0c1,0 4,0 5,0c2,0 4,0 5,0c4,0 5,0 9,0c1,0 4.152222,-0.765381 6,0c1.30658,0.541199 3.012939,0.839813 4,1c3.12146,0.506531 7,1 10,1c2,0 4,1 6,1c1,0 3,1 4,1c2,0 4.080261,-0.68927 7,0c2.17627,0.513733 4.69342,1.458801 6,2c4.619385,1.913422 8.963806,1.115875 12,2c3.958679,1.152771 5,1 8,1c1,0 2,1 3,1c1,0 2.026733,-0.229767 3,0c2.17627,0.513733 2.080261,1.31073 5,2c2.17627,0.513733 3,1 4,1c1,0 2,1 3,1c1,0 1.292908,0.292908 2,1c0.707092,0.707092 1.292908,0.292908 2,1c0.707092,0.707092 2.076111,-0.38269 3,0c1.30658,0.541199 3,1 4,1c1,0 2,1 3,1c1,0 2.076111,-0.38269 3,0c1.30658,0.541199 1.69342,1.458801 3,2c0.923889,0.38269 2.076111,-0.38269 3,0c1.30658,0.541199 2.076111,0.61731 3,1c1.30658,0.541199 2.076111,0.61731 3,1c1.30658,0.541199 2.076111,1.61731 3,2c1.30658,0.541199 1.69342,1.458801 3,2c0.923889,0.38269 1.69342,1.458801 3,2c0.923889,0.38269 2,1 3,1c1,0 0.934143,1.144287 3,2c2.92157,1.210144 3.309998,1.337494 6,3c1.203003,0.7435 2.69342,2.458801 4,3c0.923889,0.38269 1.82373,1.486267 4,2c0.973267,0.229767 2,1 3,2c1,1 1.852722,1.173096 3,2c1.813965,1.307465 2.69342,2.458801 4,3c0.923889,0.38269 1.292908,1.292908 2,2c0.707092,0.707092 2,1 3,2c1,1 2,2 3,3c1,1 2,2 3,3c1,1 2,2 3,3c1,1 1.61731,2.076111 2,3c0.541199,1.306549 1.076111,2.61731 2,3c1.30658,0.541199 1.770264,3.026764 2,4c0.513733,2.176239 1.770264,3.026764 2,4c0.513733,2.176239 4.093811,8.95578 5,11c7.826965,17.656128 8.609375,18.763885 13,31c11.645874,32.455719 11.755615,37.014984 12,39c0.503784,4.092224 3.496216,8.907776 4,13c0.122192,0.992493 1.493469,2.878571 2,6c0.320374,1.974182 1,3 1,4c0,1 1,2 1,3c0,1 0,2 0,3c0,1 -1,3 -1,4c0,2 0.121338,5.878662 -2,8c-0.707092,0.707092 -0.0979,3.824402 -2,5c-0.850647,0.525757 -1.458801,1.69342 -2,3c-0.765381,1.847778 -1.458801,2.69342 -2,4c-0.765381,1.847778 -0.770264,2.026733 -1,3c-0.513733,2.17627 -1.692566,2.186035 -3,4c-0.826904,1.147278 -0.705444,2.346191 -3,4c-1.813965,1.307434 -2.298706,1.948547 -4,3c-1.9021,1.175598 -1,3 -3,5c-1,1 -4,3 -5,4c-2,2 -2.824402,2.0979 -4,4c-0.525757,0.850647 -3.151001,0.434631 -5,3c-1.169434,1.622498 -2.149353,2.474243 -3,3c-1.9021,1.175598 -2.824402,1.0979 -4,3c-0.525757,0.850647 -1,1 -2,2c-1,1 -1.69342,1.458801 -3,2c-0.923889,0.38269 -1.386902,0.917603 -4,2c-0.923889,0.38269 -2.82373,1.486267 -5,2c-1.946472,0.459534 -2.82373,0.486267 -5,1c-1.946472,0.459534 -4.549133,1.955139 -8,3c-1.914185,0.57959 -4,0 -6,1c-2,1 -4.051636,0.359253 -8,1c-3.12146,0.506531 -5,2 -7,2c-3,0 -4.82373,0.486267 -7,1c-0.973267,0.229736 -4.007507,-0.122192 -5,0c-4.092224,0.503784 -6,1 -9,1c-2,0 -6.022461,-0.366577 -9,0c-4.092224,0.503784 -8,1 -11,1c-4,0 -8,0 -9,0c-3,0 -5,0 -8,0c-3,0 -7.022461,0.366577 -10,0c-4.092224,-0.503784 -5.87854,-1.493469 -9,-2c-2.961243,-0.48053 -5.015015,0.244385 -7,0c-4.092224,-0.503784 -7.228333,0.148071 -10,-1c-1.30658,-0.541199 -3,-1 -8,-1c-2,0 -4,0 -6,0c-1,0 -3,0 -4,0c-2,0 -5,0 -7,0c-1,0 -3.025818,0.320374 -5,0c-3.12146,-0.506531 -4,-1 -8,-1c-1,0 -4.053528,0.459534 -6,0c-2.17627,-0.513733 -4,-1 -8,-1c-1,0 -4,0 -7,0c-1,0 -6.87854,-0.493469 -10,-1c-5.922546,-0.961121 -7.937988,-0.498291 -14,-1c-3.986389,-0.329895 -7,-1 -14,-1c-4,0 -10,0 -14,0c-5,0 -8,0 -14,0c-5,0 -8,0 -13,0c-2,0 -6,0 -8,0c-5,0 -7,0 -12,0c-3,0 -6,0 -12,0c-4,0 -10,-1 -13,-1c-8,0 -10,0 -11,0c-4,0 -7,0 -10,0c-2,0 -6,-1 -8,-1c-4,0 -4.925781,-0.497559 -10,-1c-1.990265,-0.197083 -5.937958,-0.498291 -12,-1c-1.993195,-0.164978 -8.005035,-0.858215 -10,-1c-7.053284,-0.501282 -9.014587,-0.704407 -12,-1c-5.074219,-0.502441 -8.176971,-0.345154 -13,-2c-2.115051,-0.725708 -7,-1 -8,-1c-3,0 -4.823761,-0.486267 -7,-1c-1.946503,-0.459534 -6,-1 -10,-1c-2,0 -7.014984,0.244385 -9,0c-4.092224,-0.503784 -6.925781,-1.497559 -12,-2c-2.985413,-0.295593 -5,-1 -11,-1c-3,0 -8.946716,-1.498718 -16,-2c-2.992462,-0.212646 -10.962616,-2.49939 -21,-3c-3.995041,-0.19928 -12.176971,-0.345154 -17,-2c-2.115036,-0.725708 -5.823746,-1.486267 -8,-2c-2.919754,-0.68927 -6.878555,-0.493469 -10,-1c-3.948349,-0.640747 -6,-1 -9,-1c-1,0 -4.012909,0.160156 -5,0c-3.121445,-0.506531 -3.925797,-1.497559 -9,-2c-0.995132,-0.098511 -4.080246,-0.31073 -7,-1c-2.176254,-0.513733 -4,-2 -6,-2c-3,0 -3.228363,0.148071 -6,-1c-1.306564,-0.541199 -2.693436,-1.458801 -4,-2c-2.771637,-1.148071 -3.693436,-0.458801 -5,-1c-0.923874,-0.38269 -3.152237,-0.234619 -5,-1c-1.306564,-0.541199 -2,-1 -3,-1c-1,0 -0.823746,-1.486267 -3,-2c-0.973251,-0.229736 -1.292892,-0.292908 -2,-1c-0.707108,-0.707092 -2.292892,-1.292908 -3,-2c-1.414215,-1.414185 -3.292892,-0.292908 -4,-1c-0.707108,-0.707092 -1,-1 -2,-2c-1,-1 -1.292892,-1.292908 -2,-2c-0.707108,-0.707092 -2.292892,-0.292908 -3,-1c-0.707108,-0.707092 -1.292892,-1.292908 -2,-2c-0.707108,-0.707092 -0.292892,-1.292908 -1,-2c-0.707108,-0.707092 -2.458801,-0.69342 -3,-2c-0.38269,-0.923889 -1,-1 -2,-2c-1,-1 -2.292892,-1.292908 -3,-2c-0.707108,-0.707092 -1.292892,-1.292908 -2,-2c-0.707108,-0.707092 -0.292892,-2.292908 -1,-3c-0.707108,-0.707092 -1,-1 -2,-2c-1,-1 -1.292892,-1.292908 -2,-2c-0.707108,-0.707092 -1,-1 -1,-2c0,-1 -1,-1 -1,-2c0,-1 0.414215,-1.585815 -1,-3c-0.707108,-0.707092 -0.585785,-1.585785 -2,-3c-0.707108,-0.707092 -0.617317,-1.076111 -1,-2c-0.541199,-1.306549 -2.458801,-1.693451 -3,-3c-0.382683,-0.923889 0.382683,-2.076111 0,-3c-0.541199,-1.306549 -0.234634,-2.152252 -1,-4c-0.541199,-1.306549 -1,-5 -1,-7c0,-1 0,-4 0,-6c0,-3 1,-4 1,-6c0,-1 1.458801,-2.693451 2,-4c0.382683,-0.923889 -0.382683,-3.076111 0,-4c0.541199,-1.306549 1.770248,-4.026764 2,-5c0.513741,-2.176239 1.486259,-3.823761 2,-6c0.229752,-0.973236 -0.307449,-3.186005 1,-5c0.826904,-1.147278 1.458801,-2.693451 2,-4c0.382683,-0.923889 0.617317,-3.076111 1,-4c0.541199,-1.306549 1,-2 1,-3c0,-1 1,-1 1,-2c0,-1 0.292892,-1.292908 1,-2c0.707108,-0.707092 0.458801,-1.693451 1,-3c0.382683,-0.923889 0.292892,-2.292908 1,-3c0.707108,-0.707092 0.617317,-1.076111 1,-2c0.541199,-1.306549 1.292892,-1.292908 2,-2c0.707108,-0.707092 0,-2 1,-3c1,-1 1.458801,-1.693451 2,-3c0.38269,-0.923889 0.234634,-2.152252 1,-4c1.082397,-2.613129 2,-4 2,-5c0,-1 0.292892,-1.292908 1,-2c0.707108,-0.707092 1,-1 1,-2c0,-1 1,-1 1,-2c0,-1 1,-1 1,-2c0,-1 1.173096,-0.852722 2,-2c1.307449,-1.813995 1.292892,-2.292908 2,-3c1.414215,-1.414215 0.692551,-3.186005 2,-5c0.826904,-1.147278 1.458801,-2.693451 2,-4c0.38269,-0.923889 0.292892,-1.292908 1,-2c0.707108,-0.707092 0.292892,-1.292908 1,-2c0.707108,-0.707092 0.292892,-1.292908 1,-2c0.707108,-0.707092 1,-1 1,-2c0,-1 0.61731,-1.076111 1,-2c0.541199,-1.306549 0.292892,-2.292908 1,-3c0.707108,-0.707092 1.486252,-0.823761 2,-3c0.229752,-0.973236 0.292892,-1.292908 1,-2c0.707108,-0.707092 0.61731,-2.076111 1,-3c0.541199,-1.306549 1,-2 1,-3l1,0l0,-1" id="svg_3" fill-opacity="null" stroke-opacity="null" stroke-width="1.5" stroke="#000" fill="none"/>
 </g>
</svg>